<?xml version="1.0" standalone="no"?><!DOCTYPE svg PUBLIC "-//W3C//DTD SVG 1.1//EN" "http://www.w3.org/Graphics/SVG/1.1/DTD/svg11.dtd"><svg t="1693273533214" class="icon" viewBox="0 0 1024 1024" version="1.1" xmlns="http://www.w3.org/2000/svg" p-id="3147" xmlns:xlink="http://www.w3.org/1999/xlink" width="200" height="200"><path d="M469.333333 887.594667V571.776a17.066667 17.066667 0 0 1 17.066667-17.066667l51.2 0.064a17.066667 17.066667 0 0 1 17.066667 17.066667v164.202667a4.266667 4.266667 0 0 0 8.064 1.962666l132.821333-256.170666a8.533333 8.533333 0 0 0-7.573333-12.458667l-73.578667-0.064a17.066667 17.066667 0 0 1-17.066667-17.066667V401.066667a17.066667 17.066667 0 0 1 17.066667-17.066667h145.194667a51.2 51.2 0 0 1 51.2 51.221333c0 8.576-2.304 17.024-6.4 24.533334l-238.933334 452.16A51.2 51.2 0 0 1 469.333333 887.594667z" fill="#13227a" p-id="3148"></path><path d="M409.6 640h-145.066667a51.2 51.2 0 0 1-51.2-51.221333c0-8.576 2.304-17.024 6.4-24.533334L458.645333 112.085333a51.2 51.2 0 0 1 96.149334 24.32V298.666667l-0.106667 153.557333a17.066667 17.066667 0 0 1-17.088 17.045333l-51.072-0.042666a17.066667 17.066667 0 0 1-17.066667-17.066667v-164.202667a4.266667 4.266667 0 0 0-8.064-1.962666l-132.821333 256.170666a8.533333 8.533333 0 0 0 7.573333 12.458667l73.450667 0.064a17.066667 17.066667 0 0 1 17.066667 17.066667V622.933333a17.066667 17.066667 0 0 1-17.066667 17.066667z" fill="#13227a" p-id="3149"></path></svg>